# xmcd CD database file
#
# Track frame offsets:
#	150
#	25345
#	44687
#	71893
#	89435
#	113883
#	129909
#
# Disc length: 2121 seconds
#
# Revision: 0
# Processed by: cddbd v1.5PL3 Copyright (c) Steve Scherf et al.
# Submitted via: CDex 1.50beta10
#
DISCID=61084707
DTITLE=Αλέκα Κανελλίδου - Back To Jazz
DYEAR=2002
DGENRE=Jazz
TTITLE0=Αλέκα Κανελλίδου - The Man I Love
TTITLE1=Αλέκα Κανελλίδου - Nature Boy
TTITLE2=Αλέκα Κανελλίδου - I've Got You Under My Skin
TTITLE3=Αλέκα Κανελλίδου - Alekas Theme
TTITLE4=Αλέκα Κανελλίδου - Misty
TTITLE5=Αλέκα Κανελλίδου - Angel Eyes
TTITLE6=Αλέκα Κανελλίδου - My Friend
EXTD=YEAR: 2002
EXTT0=
EXTT1=
EXTT2=
EXTT3=
EXTT4=
EXTT5=
EXTT6=
PLAYORDER=
